<svg width="65" height="65" viewBox="0 0 65 65" fill="none" xmlns="http://www.w3.org/2000/svg">
<path d="M42.2213 32.5018C42.2213 35.0388 41.2135 37.4718 39.4196 39.2657C37.6257 41.0596 35.1927 42.0674 32.6557 42.0674C30.1188 42.0674 27.6857 41.0596 25.8919 39.2657C24.098 37.4718 23.0902 35.0388 23.0902 32.5018C23.0902 31.9566 23.1476 31.4241 23.2464 30.9075H19.9016V43.6521C19.9016 44.5385 20.6191 45.2559 21.5055 45.2559H43.8092C44.234 45.2551 44.6411 45.0857 44.9412 44.785C45.2413 44.4843 45.4098 44.0769 45.4098 43.6521V30.9075H42.0651C42.1639 31.4241 42.2213 31.9566 42.2213 32.5018ZM32.6557 38.8789C33.4934 38.8786 34.3228 38.7134 35.0966 38.3927C35.8704 38.0719 36.5735 37.6019 37.1656 37.0095C37.7578 36.417 38.2275 35.7137 38.5479 34.9397C38.8682 34.1658 39.033 33.3363 39.0328 32.4986C39.0326 31.661 38.8674 30.8315 38.5466 30.0577C38.2259 29.2839 37.7559 28.5809 37.1634 27.9887C36.5709 27.3965 35.8676 26.9269 35.0937 26.6065C34.3197 26.2861 33.4902 26.1214 32.6525 26.1216C30.9608 26.122 29.3386 26.7944 28.1426 27.991C26.9467 29.1875 26.2751 30.8101 26.2755 32.5018C26.2759 34.1935 26.9484 35.8158 28.1449 37.0117C29.3414 38.2076 30.964 38.8793 32.6557 38.8789ZM40.3082 25.8059H44.1312C44.3852 25.8059 44.6289 25.7052 44.8088 25.5259C44.9886 25.3466 45.0901 25.1033 45.091 24.8493V21.0263C45.091 20.7718 44.9899 20.5276 44.8099 20.3477C44.6299 20.1677 44.3858 20.0666 44.1312 20.0666H40.3082C40.0537 20.0666 39.8095 20.1677 39.6296 20.3477C39.4496 20.5276 39.3484 20.7718 39.3484 21.0263V24.8493C39.3516 25.3755 39.7821 25.8059 40.3082 25.8059ZM32.6557 1.89197C24.5375 1.89197 16.7518 5.11692 11.0113 10.8574C5.27085 16.5978 2.0459 24.3836 2.0459 32.5018C2.0459 40.62 5.27085 48.4058 11.0113 54.1462C16.7518 59.8867 24.5375 63.1116 32.6557 63.1116C36.6755 63.1116 40.6559 62.3199 44.3696 60.7816C48.0834 59.2433 51.4578 56.9886 54.3002 54.1462C57.1425 51.3038 59.3972 47.9294 60.9355 44.2157C62.4738 40.5019 63.2656 36.5215 63.2656 32.5018C63.2656 28.4821 62.4738 24.5017 60.9355 20.7879C59.3972 17.0742 57.1425 13.6998 54.3002 10.8574C51.4578 8.01499 48.0834 5.76029 44.3696 4.222C40.6559 2.68371 36.6755 1.89197 32.6557 1.89197ZM48.5984 44.902C48.5984 46.8502 47.0041 48.4444 45.0559 48.4444H20.2556C18.3074 48.4444 16.7131 46.8502 16.7131 44.902V20.1016C16.7131 18.1534 18.3074 16.5592 20.2556 16.5592H45.0559C47.0041 16.5592 48.5984 18.1534 48.5984 20.1016V44.902Z" fill="white"/>
</svg>
