<svg width="65" height="65" viewBox="0 0 65 65" fill="none" xmlns="http://www.w3.org/2000/svg">
<path d="M32.1968 1.89197C15.2912 1.89197 1.58691 15.5962 1.58691 32.5018C1.58691 49.4074 15.2912 63.1116 32.1968 63.1116C49.1023 63.1116 62.8066 49.4074 62.8066 32.5018C62.8066 15.5962 49.1023 1.89197 32.1968 1.89197ZM44.6479 26.9665C44.6607 27.228 44.6639 27.4894 44.6639 27.7445C44.6639 35.7158 38.6025 44.902 27.5128 44.902C24.2359 44.9074 21.0272 43.9663 18.2725 42.1917C18.7412 42.2491 19.2226 42.2714 19.7105 42.2714C22.5355 42.2714 25.1342 41.3117 27.1971 39.6919C25.94 39.6672 24.7218 39.2509 23.7124 38.5011C22.7031 37.7512 21.9528 36.7051 21.5662 35.5086C22.4691 35.6803 23.3991 35.6443 24.286 35.4034C22.9215 35.1274 21.6944 34.3881 20.8128 33.3106C19.9312 32.2332 19.4494 30.884 19.449 29.4918V29.4185C20.2621 29.8681 21.1932 30.1423 22.1816 30.1742C20.9024 29.3226 19.9968 28.0145 19.65 26.5174C19.3033 25.0202 19.5417 23.4472 20.3163 22.12C21.8307 23.9821 23.7193 25.5054 25.8598 26.5913C28.0003 27.6772 30.3449 28.3014 32.742 28.4237C32.4372 27.1301 32.5684 25.7721 33.1151 24.5608C33.6618 23.3495 34.5933 22.3527 35.7649 21.7254C36.9366 21.0982 38.2826 20.8756 39.5938 21.0922C40.905 21.3089 42.1079 21.9527 43.0154 22.9235C44.3647 22.6565 45.6586 22.1616 46.8416 21.4599C46.3919 22.8569 45.4504 24.0432 44.192 24.7983C45.3872 24.6544 46.5543 24.333 47.6547 23.845C46.8464 25.0563 45.8281 26.1134 44.6479 26.9665Z" fill="white"/>
</svg>
