<svg width="65" height="65" viewBox="0 0 65 65" fill="none" xmlns="http://www.w3.org/2000/svg">
<path d="M37.5374 31.9693L30.376 28.6277C29.7511 28.3376 29.2377 28.6628 29.2377 29.3547V35.6489C29.2377 36.3408 29.7511 36.666 30.376 36.3759L37.5343 33.0343C38.1624 32.7409 38.1624 32.2627 37.5374 31.9693ZM32.4262 1.89197C15.5207 1.89197 1.81641 15.5962 1.81641 32.5018C1.81641 49.4074 15.5207 63.1116 32.4262 63.1116C49.3318 63.1116 63.0361 49.4074 63.0361 32.5018C63.0361 15.5962 49.3318 1.89197 32.4262 1.89197ZM32.4262 44.937C16.7578 44.937 16.4836 43.5245 16.4836 32.5018C16.4836 21.4791 16.7578 20.0666 32.4262 20.0666C48.0947 20.0666 48.3689 21.4791 48.3689 32.5018C48.3689 43.5245 48.0947 44.937 32.4262 44.937Z" fill="white"/>
</svg>
